<svg id="raspberrypi" xmlns="http://www.w3.org/2000/svg" width="16.971" height="20.888" viewBox="0 0 16.971 20.888">
  <path id="Path_4283" data-name="Path 4283" d="M16.971,12.4a3.749,3.749,0,0,1-.357,1.642,3.029,3.029,0,0,1-.949,1.173,3.952,3.952,0,0,1-1.305,3.039,4.17,4.17,0,0,1-2.795,1.305,2.421,2.421,0,0,1-1.173.949,4.636,4.636,0,0,1-1.907.377,4.636,4.636,0,0,1-1.907-.377,2.421,2.421,0,0,1-1.173-.949,4.17,4.17,0,0,1-2.795-1.305,3.952,3.952,0,0,1-1.305-3.039,3.029,3.029,0,0,1-.949-1.173,3.923,3.923,0,0,1,.031-3.335,2.919,2.919,0,0,1,1.02-1.183,2.8,2.8,0,0,1,.041-1.632,3.727,3.727,0,0,1,.959-1.571,4.146,4.146,0,0,1,1.407-.9,4.59,4.59,0,0,1-1.662-1.5,4.908,4.908,0,0,1-.847-2.07A4.073,4.073,0,0,1,2.825.5,4.373,4.373,0,0,1,4.9,0a4.373,4.373,0,0,1,2.07.5,4.073,4.073,0,0,1,1.52,1.356A4.073,4.073,0,0,1,10.005.5a4.539,4.539,0,0,1,4.141,0,4.073,4.073,0,0,1,1.52,1.356,4.908,4.908,0,0,1-.847,2.07,4.539,4.539,0,0,1-1.683,1.5,4.1,4.1,0,0,1,1.428.9,3.727,3.727,0,0,1,.959,1.571,2.8,2.8,0,0,1,.041,1.632,2.919,2.919,0,0,1,1.02,1.183A3.732,3.732,0,0,1,16.971,12.4ZM11.627,18.2a3.538,3.538,0,0,0,1.754-.918,3.415,3.415,0,0,0,.847-1.1,1.294,1.294,0,0,0,.092-.9,1.887,1.887,0,0,0-.53-.775,3.961,3.961,0,0,0-.673-.469l-.02.02-.041.02a2.44,2.44,0,0,1-.653.224v.061a3.744,3.744,0,0,1-1.163,2.774A9.841,9.841,0,0,1,11.627,18.2Zm1.02-7.71A2.831,2.831,0,0,0,11.29,9.332a1.716,1.716,0,0,0-1.509-.051A1.379,1.379,0,0,0,9.138,10.6a1.789,1.789,0,0,0,.551,1.479A3.962,3.962,0,0,0,11.311,13a1.172,1.172,0,0,0,1.173-.194,1.573,1.573,0,0,0,.571-1.02A2.378,2.378,0,0,0,12.647,10.485Zm-4.161,9.1A2.46,2.46,0,0,0,9.873,19.2a1.1,1.1,0,0,0,.571-.928.933.933,0,0,0-.143-.469,3.747,3.747,0,0,1-3.631,0,.933.933,0,0,0-.143.469A1.1,1.1,0,0,0,7.1,19.2,2.46,2.46,0,0,0,8.486,19.582Zm0-2.611a2.826,2.826,0,0,0,1.826-.632,1.749,1.749,0,0,0,.785-1.326,3.013,3.013,0,0,0-.122-.775,4.128,4.128,0,0,1-2.489-1.815A4.128,4.128,0,0,1,6,14.238a2.849,2.849,0,0,0-.122.775,1.749,1.749,0,0,0,.785,1.326A2.826,2.826,0,0,0,8.486,16.971Zm-1.3-7.69a1.716,1.716,0,0,0-1.509.051,2.831,2.831,0,0,0-1.356,1.152,2.378,2.378,0,0,0-.408,1.305,1.573,1.573,0,0,0,.571,1.02A1.172,1.172,0,0,0,5.66,13a3.962,3.962,0,0,0,1.622-.928A1.789,1.789,0,0,0,7.833,10.6,1.379,1.379,0,0,0,7.19,9.281Zm-3.6,8a3.538,3.538,0,0,0,1.754.918,9.842,9.842,0,0,1,.388-1.061A3.744,3.744,0,0,1,4.569,14.36V14.3a2.828,2.828,0,0,1-.653-.224.059.059,0,0,1-.041-.02l-.02-.02a3.961,3.961,0,0,0-.673.469,1.887,1.887,0,0,0-.53.775,1.294,1.294,0,0,0,.092.9A3.415,3.415,0,0,0,3.59,17.277ZM1.305,12.4a3.1,3.1,0,0,0,.367,1.509,2.466,2.466,0,0,1,.265-.326,1.767,1.767,0,0,1,1-.469A2.927,2.927,0,0,1,2.9,10.464q-.2-.02-.286-.02a1.133,1.133,0,0,0-.949.469A2.474,2.474,0,0,0,1.305,12.4ZM3.468,7.384a2.761,2.761,0,0,0-.857,1.754,2.05,2.05,0,0,1,.959.245A4.057,4.057,0,0,1,5.752,7.955a2.288,2.288,0,0,1-.53-1.407A2.8,2.8,0,0,0,3.468,7.384Zm1.55-6.079a5.413,5.413,0,0,0-1.407.2,2.37,2.37,0,0,0-1,.449A3.426,3.426,0,0,0,3.59,3.723a2.475,2.475,0,0,0,1.815.847,3.469,3.469,0,0,0,.755-.082,4.99,4.99,0,0,0-.4-.622,6.287,6.287,0,0,0-.53-.622q-.3-.306-.479-.5t-.49-.469Q3.957,2,3.916,1.958A5.75,5.75,0,0,1,5.9,2.611,5.36,5.36,0,0,1,7.466,3.876a2.315,2.315,0,0,0,.367-.367v-.02a1.893,1.893,0,0,0-.826-1.55A3.176,3.176,0,0,0,5.018,1.305ZM8.486,5.222A1.95,1.95,0,0,0,6.527,7.18a1.848,1.848,0,0,0,.122.653,2.455,2.455,0,0,1,1.183.286,2.037,2.037,0,0,1,.653.51,2.037,2.037,0,0,1,.653-.51,2.455,2.455,0,0,1,1.183-.286,1.965,1.965,0,0,0,.122-.653A1.95,1.95,0,0,0,8.486,5.222ZM14.36,1.958a2.37,2.37,0,0,0-1-.449,5.349,5.349,0,0,0-1.387-.2,3.208,3.208,0,0,0-2.009.632,1.893,1.893,0,0,0-.826,1.55v.02a2.315,2.315,0,0,0,.367.367,5.36,5.36,0,0,1,1.571-1.265,5.75,5.75,0,0,1,1.979-.653q-.041.041-.347.316t-.49.469q-.184.194-.479.5a6.287,6.287,0,0,0-.53.622,4.99,4.99,0,0,0-.4.622,3.469,3.469,0,0,0,.755.082,2.475,2.475,0,0,0,1.815-.847A3.426,3.426,0,0,0,14.36,1.958ZM13.5,7.384a2.8,2.8,0,0,0-1.754-.836,2.137,2.137,0,0,1-.53,1.407A4.057,4.057,0,0,1,13.4,9.383a2.05,2.05,0,0,1,.959-.245A2.761,2.761,0,0,0,13.5,7.384Zm.857,3.06q-.082,0-.286.02a2.927,2.927,0,0,1-.041,2.652,1.767,1.767,0,0,1,1,.469,1.426,1.426,0,0,1,.265.326,3.1,3.1,0,0,0,.367-1.509Q15.666,10.444,14.36,10.444Z" fill="#fff"/>
</svg>