<svg id="Group_3" data-name="Group 3" xmlns="http://www.w3.org/2000/svg" xmlns:xlink="http://www.w3.org/1999/xlink" width="560.11" height="212.153" viewBox="0 0 560.11 212.153">
  <defs>
    <clipPath id="clip-path">
      <rect id="Rectangle_3" data-name="Rectangle 3" width="560.11" height="212.153" fill="none"/>
    </clipPath>
  </defs>
  <path id="Path_1" data-name="Path 1" d="M50.942-25.447,43.255-1.864,35.882-25.447H26.366L18.627-2.073,11.254-25.447H.587l11.87,36.6H23.542l7.321-22.276,7.007,22.276H48.955l11.87-36.6Zm22.642,28.6V-3.537H89.846v-7.739H73.583v-6.17H92.042v-8H63.335v36.6H92.722v-8Zm37.283,8.732c10.876,0,16.21-5.438,16.21-11.818,0-13.491-20.759-9.308-20.759-14.9,0-1.83,1.569-3.294,5.909-3.294A21.628,21.628,0,0,1,122.37-15.3l3.19-7.687a27.412,27.412,0,0,0-13.282-3.19c-10.876,0-16.21,5.334-16.21,11.87,0,13.6,20.811,9.36,20.811,15.164,0,1.778-1.673,2.981-5.961,2.981A23.082,23.082,0,0,1,98.839.228l-3.4,7.634C98.892,10.267,104.853,11.888,110.866,11.888Zm27.3-.732h10.353V-17.237H159.7v-8.21H126.919v8.21h11.242Zm35.191-8V-3.537h16.262v-7.739H173.353v-6.17h18.458v-8H163.1v36.6h29.387v-8Zm47.061,8H231.5l-7.9-11.5A12.146,12.146,0,0,0,230.767-11.9c0-8.366-6.275-13.543-16.262-13.543H197.772v36.6h10.353V1.43h5.647Zm-.1-23.06c0,3.347-2.144,5.334-6.432,5.334h-5.752V-17.29h5.752C218.165-17.29,220.309-15.3,220.309-11.9Zm40.42-13.543v19.5l-16.158-19.5h-8.523v36.6h10.144v-19.5l16.158,19.5h8.523v-36.6Zm59.244,36.6h10.772l-16.21-36.6h-10.2l-16.158,36.6h10.563l2.876-7.111H317.1ZM304.653-3.59,309.359-15.3,314.065-3.59Zm51.192,14.746H366.93l-7.9-11.5A12.146,12.146,0,0,0,366.2-11.9c0-8.366-6.275-13.543-16.262-13.543H333.2v36.6h10.353V1.43H349.2Zm-.1-23.06c0,3.347-2.144,5.334-6.432,5.334h-5.752V-17.29h5.752C353.6-17.29,355.74-15.3,355.74-11.9Z" transform="translate(31.515 59.923)" fill="#aeb0b3"/>
  <path id="Path_3" data-name="Path 3" d="M21.378,11.888c6.745,0,12.184-2.458,15.739-6.9L30.529-.975A10.82,10.82,0,0,1,21.9,3.313c-6.013,0-10.2-4.183-10.2-10.458S15.888-17.6,21.9-17.6a10.82,10.82,0,0,1,8.628,4.288l6.589-5.961c-3.556-4.445-8.994-6.9-15.739-6.9-11.608,0-20.132,7.9-20.132,19.034S9.77,11.888,21.378,11.888Z" transform="translate(400.859 59.923)" fill="#aeb0b3"/>
  <path id="Path_2" data-name="Path 2" d="M11.389,11.156H21.742V-17.237h11.19v-8.21H.147v8.21H11.389Zm24.942,0H46.685v-36.6H36.331Zm35.557.732c6.745,0,12.184-2.458,15.739-6.9L81.039-.975a10.82,10.82,0,0,1-8.628,4.288c-6.013,0-10.2-4.183-10.2-10.458S66.4-17.6,72.411-17.6a10.82,10.82,0,0,1,8.628,4.288l6.589-5.961c-3.556-4.445-8.994-6.9-15.739-6.9-11.608,0-20.132,7.9-20.132,19.034S60.28,11.888,71.888,11.888Z" transform="translate(439.242 59.923)" fill="#aeb0b3"/>
  <path id="Path_4" data-name="Path 4" d="M12.408,3.055v-6.48H28.154v-7.493H12.408v-5.974H30.28v-7.746H2.485V10.8H30.938V3.055ZM43.089,10.8H53.113V-16.69H63.948v-7.949H32.2v7.949H43.089Zm47.337-35.44v13.315H76.757V-24.638H66.732V10.8H76.757V-3.02h13.67V10.8h10.024v-35.44Zm40.047,0V-5.754L114.829-24.638h-8.252V10.8H116.4V-8.083L132.043,10.8H140.3v-35.44Zm33.82,36.149c11.341,0,19.694-7.8,19.694-18.429s-8.354-18.429-19.694-18.429S144.6-17.55,144.6-6.918,152.952,11.51,164.293,11.51Zm0-8.3c-5.367,0-9.569-4-9.569-10.126s4.2-10.126,9.569-10.126,9.569,4,9.569,10.126S169.66,3.207,164.293,3.207ZM215.478-7.678a8.368,8.368,0,0,0,4.759-7.7c0-5.468-4.557-9.265-13.872-9.265H188.24V10.8h19.138c9.518,0,14.581-3.595,14.581-9.721C221.959-3.222,219.478-6.26,215.478-7.678ZM205.049-17.4c3.341,0,5.063,1.164,5.063,3.392,0,2.278-1.721,3.443-5.063,3.443h-6.885V-17.4Zm1.519,20.96h-8.4V-3.627h8.4c3.443,0,5.265,1.164,5.265,3.595S210.011,3.562,206.568,3.562Zm37.516,7.949c11.341,0,19.694-7.8,19.694-18.429s-8.354-18.429-19.694-18.429-19.694,7.8-19.694,18.429S232.743,11.51,244.083,11.51Zm0-8.3c-5.367,0-9.569-4-9.569-10.126s4.2-10.126,9.569-10.126,9.569,4,9.569,10.126S249.45,3.207,244.083,3.207ZM274.612,10.8h10.024V-16.69h10.835v-7.949H263.727v7.949h10.885Zm46.629,0H331.67l-15.695-35.44H306.1L290.459,10.8h10.227l2.785-6.885h14.986ZM306.407-3.476l4.557-11.341L315.52-3.476ZM357.44-24.638V-5.754L341.8-24.638h-8.252V10.8h9.822V-8.083L359.01,10.8h8.252v-35.44ZM373.388,10.8h10.024v-35.44H373.388Zm33.87.709c6.531,0,11.8-2.38,15.239-6.683L416.118-.944a10.476,10.476,0,0,1-8.354,4.152c-5.822,0-9.872-4.05-9.872-10.126s4.05-10.126,9.872-10.126a10.476,10.476,0,0,1,8.354,4.152l6.379-5.772c-3.443-4.3-8.708-6.683-15.239-6.683-11.24,0-19.492,7.645-19.492,18.429S396.019,11.51,407.258,11.51Zm44.047-.709h10.429L446.04-24.638h-9.873L420.523,10.8H430.75l2.785-6.885h14.986ZM436.471-3.476l4.557-11.341,4.557,11.341ZM463.557,10.8h26.934V2.853h-16.91V-24.638H463.557Z" transform="translate(34.349 114.469)" fill="#58ac35"/>
  <path id="Path_5" data-name="Path 5" d="M30.756-25.447,20.612-1.6,10.677-25.447H-.513l15.635,36.6h10.2L41-25.447Zm11.661,36.6H52.77v-36.6H42.417Zm40.368,0H93.87l-7.9-11.5A12.146,12.146,0,0,0,93.138-11.9c0-8.366-6.275-13.543-16.262-13.543H60.143v36.6H70.5V1.43h5.647Zm-.1-23.06c0,3.347-2.144,5.334-6.432,5.334H70.5V-17.29h5.752C80.536-17.29,82.68-15.3,82.68-11.9Zm22.955,23.06h10.353V-17.237h11.19v-8.21H94.393v8.21h11.242Zm41.2.732c10.824,0,17.2-6.118,17.2-17.047V-25.447h-10.2V-5.472c0,6.275-2.614,8.785-6.9,8.785-4.34,0-6.955-2.51-6.955-8.785V-25.447H129.636V-5.158C129.636,5.77,136.016,11.888,146.84,11.888Zm50.041-.732h10.772l-16.21-36.6h-10.2l-16.158,36.6h10.563l2.876-7.111h15.478ZM181.56-3.59,186.266-15.3,190.972-3.59Zm29.021,14.746H238.4V2.947H220.935V-25.447H210.581ZM282.218,2.11a13.154,13.154,0,0,1-5.6,1.2c-6.17,0-10.353-4.288-10.353-10.458,0-6.327,4.183-10.458,10.458-10.458a11.417,11.417,0,0,1,8.889,4.079l6.589-5.961c-3.608-4.34-9.151-6.693-16-6.693-11.87,0-20.393,7.9-20.393,19.034S264.335,11.888,276,11.888a27.3,27.3,0,0,0,15.373-4.654V-7.93h-9.151Zm43.139,9.046h10.772l-16.21-36.6h-10.2l-16.158,36.6h10.563L307,4.045h15.478ZM310.037-3.59,314.743-15.3,319.449-3.59ZM361.7,11.156h11.085l-7.9-11.5A12.146,12.146,0,0,0,372.052-11.9c0-8.366-6.275-13.543-16.262-13.543H339.057v36.6h10.353V1.43h5.647Zm-.1-23.06c0,3.347-2.144,5.334-6.432,5.334h-5.752V-17.29h5.752C359.451-17.29,361.594-15.3,361.594-11.9Zm16.158,23.06H395.06c12.131,0,20.445-7.059,20.445-18.3s-8.314-18.3-20.445-18.3H377.752Zm10.353-8.262V-17.185h6.536c6.223,0,10.406,3.713,10.406,10.04s-4.183,10.04-10.406,10.04Zm43.087.261V-3.537h16.262v-7.739H431.192v-6.17h18.458v-8H420.944v36.6H450.33v-8Zm49.571-28.6v19.5l-16.158-19.5h-8.523v36.6h10.144v-19.5l16.158,19.5h8.523v-36.6Z" transform="translate(32.092 168.305)" fill="#2f8234"/>
  <g id="Group_2" data-name="Group 2">
    <g id="Group_1" data-name="Group 1" clip-path="url(#clip-path)">
      <rect id="Rectangle_2" data-name="Rectangle 2" width="556.153" height="208.195" transform="translate(1.978 1.978)" fill="none" stroke="#2f8234" stroke-miterlimit="10" stroke-width="2.775"/>
    </g>
  </g>
</svg>