<svg xmlns="http://www.w3.org/2000/svg" width="460.231" height="32" viewBox="0 0 460.231 32">
  <g id="Component_19_1" data-name="Component 19 – 1" transform="translate(1 1)">
    <g id="Group_13" data-name="Group 13" transform="translate(9.85 9.405)">
      <g id="Group_12" data-name="Group 12" transform="translate(0 0)">
        <path id="Path_1" data-name="Path 1" d="M15.047-25.969,12.839-19.2l-2.117-6.772H7.989L5.767-19.257,3.65-25.969H.587L4-15.458H7.178l2.1-6.4,2.012,6.4h3.183l3.409-10.511Zm6.5,8.213v-1.922h4.67V-21.9h-4.67v-1.772h5.3v-2.3H18.605v10.511h8.439v-2.3Zm10.706,2.508c3.123,0,4.655-1.562,4.655-3.393,0-3.874-5.961-2.673-5.961-4.279,0-.526.45-.946,1.7-.946a6.211,6.211,0,0,1,2.913.811l.916-2.207a7.872,7.872,0,0,0-3.814-.916C29.536-26.179,28-24.647,28-22.77c0,3.9,5.976,2.688,5.976,4.354,0,.511-.48.856-1.712.856A6.628,6.628,0,0,1,28.8-18.6L27.825-16.4A8.278,8.278,0,0,0,32.254-15.248Zm7.838-.21h2.973v-8.153h3.213v-2.357H36.864v2.357h3.228Zm10.105-2.3v-1.922h4.67V-21.9H50.2v-1.772h5.3v-2.3H47.255v10.511h8.439v-2.3Zm13.514,2.3h3.183l-2.267-3.3a3.488,3.488,0,0,0,2.057-3.318c0-2.4-1.8-3.889-4.67-3.889h-4.8v10.511h2.973v-2.793H61.8Zm-.03-6.622c0,.961-.616,1.532-1.847,1.532H60.183v-3.078h1.652C63.066-23.626,63.682-23.056,63.682-22.08Zm11.607-3.889v5.6l-4.64-5.6H68.2v10.511h2.913v-5.6l4.64,5.6H78.2V-25.969ZM92.3-15.458h3.093L90.739-25.969H87.811l-4.64,10.511H86.2l.826-2.042h4.445Zm-4.4-4.234,1.351-3.363L90.6-19.692Zm14.7,4.234h3.183l-2.267-3.3a3.488,3.488,0,0,0,2.057-3.318c0-2.4-1.8-3.889-4.67-3.889H96.1v10.511h2.973v-2.793h1.622Zm-.03-6.622c0,.961-.616,1.532-1.847,1.532H99.073v-3.078h1.652C101.956-23.626,102.572-23.056,102.572-22.08Z" transform="translate(-0.587 26.179)" fill="#aeb0b3"/>
        <path id="Path_3" data-name="Path 3" d="M7.028-15.248a5.56,5.56,0,0,0,4.52-1.982L9.655-18.941A3.107,3.107,0,0,1,7.178-17.71a2.818,2.818,0,0,1-2.928-3,2.818,2.818,0,0,1,2.928-3,3.107,3.107,0,0,1,2.478,1.231L11.547-24.2a5.56,5.56,0,0,0-4.52-1.982,5.436,5.436,0,0,0-5.781,5.466A5.436,5.436,0,0,0,7.028-15.248Z" transform="translate(105.003 26.179)" fill="#aeb0b3"/>
        <path id="Path_2" data-name="Path 2" d="M3.375-15.458H6.348v-8.153H9.561v-2.357H.147v2.357H3.375Zm7.162,0H13.51V-25.969H10.537Zm10.211.21a5.56,5.56,0,0,0,4.52-1.982l-1.892-1.712A3.107,3.107,0,0,1,20.9-17.71a2.818,2.818,0,0,1-2.928-3,2.818,2.818,0,0,1,2.928-3,3.107,3.107,0,0,1,2.478,1.231L25.268-24.2a5.56,5.56,0,0,0-4.52-1.982,5.436,5.436,0,0,0-5.781,5.466A5.436,5.436,0,0,0,20.748-15.248Z" transform="translate(116.809 26.179)" fill="#aeb0b3"/>
        <path id="Path_4" data-name="Path 4" d="M5.428-16.923v-1.922H10.1v-2.222H5.428v-1.772h5.3v-2.3H2.485v10.511h8.439v-2.3Zm9.1,2.3H17.5v-8.153h3.213v-2.357H11.3v2.357h3.228Zm14.04-10.511v3.949H24.513v-3.949H21.54v10.511h2.973v-4.1h4.054v4.1H31.54V-25.137Zm11.877,0v5.6l-4.64-5.6H33.357v10.511H36.27v-5.6l4.64,5.6h2.448V-25.137Zm10.03,10.721a5.5,5.5,0,0,0,5.841-5.466,5.5,5.5,0,0,0-5.841-5.466,5.5,5.5,0,0,0-5.841,5.466A5.5,5.5,0,0,0,50.475-14.416Zm0-2.463a2.815,2.815,0,0,1-2.838-3,2.815,2.815,0,0,1,2.838-3,2.815,2.815,0,0,1,2.838,3A2.815,2.815,0,0,1,50.475-16.878Zm15.181-3.228a2.482,2.482,0,0,0,1.411-2.282c0-1.622-1.351-2.748-4.114-2.748H57.577v10.511h5.676c2.823,0,4.324-1.066,4.324-2.883A2.654,2.654,0,0,0,65.656-20.107ZM62.562-22.99c.991,0,1.5.345,1.5,1.006,0,.676-.511,1.021-1.5,1.021H60.52V-22.99Zm.45,6.216H60.52v-2.132h2.493c1.021,0,1.562.345,1.562,1.066S64.034-16.773,63.013-16.773Zm11.127,2.357a5.5,5.5,0,0,0,5.841-5.466,5.5,5.5,0,0,0-5.841-5.466A5.5,5.5,0,0,0,68.3-19.881,5.5,5.5,0,0,0,74.139-14.416Zm0-2.463a2.815,2.815,0,0,1-2.838-3,2.815,2.815,0,0,1,2.838-3,2.815,2.815,0,0,1,2.838,3A2.815,2.815,0,0,1,74.139-16.878Zm9.054,2.252h2.973v-8.153H89.38v-2.357H79.965v2.357h3.228Zm13.829,0h3.093L95.462-25.137H92.534l-4.64,10.511h3.033l.826-2.042H96.2Zm-4.4-4.234,1.351-3.363,1.351,3.363Zm15.136-6.277v5.6l-4.64-5.6h-2.448v10.511h2.913v-5.6l4.64,5.6h2.448V-25.137Zm4.73,10.511h2.973V-25.137h-2.973Zm10.045.21a5.56,5.56,0,0,0,4.52-1.982l-1.892-1.712a3.107,3.107,0,0,1-2.478,1.231,2.818,2.818,0,0,1-2.928-3,2.818,2.818,0,0,1,2.928-3,3.107,3.107,0,0,1,2.478,1.231l1.892-1.712a5.56,5.56,0,0,0-4.52-1.982,5.436,5.436,0,0,0-5.781,5.466A5.436,5.436,0,0,0,122.535-14.416Zm13.064-.21h3.093l-4.655-10.511h-2.928l-4.64,10.511H129.5l.826-2.042h4.445Zm-4.4-4.234,1.351-3.363L133.9-18.86Zm8.033,4.234h7.988v-2.357h-5.015v-8.153h-2.973Z" transform="translate(145.055 25.347)" fill="#58ac35"/>
        <path id="Path_5" data-name="Path 5" d="M8.466-25.969,5.553-19.122,2.7-25.969H-.513l4.49,10.511H6.9l4.5-10.511Zm3.348,10.511h2.973V-25.969H11.814Zm11.592,0H26.59l-2.267-3.3A3.488,3.488,0,0,0,26.38-22.08c0-2.4-1.8-3.889-4.67-3.889H16.9v10.511h2.973v-2.793H21.5Zm-.03-6.622c0,.961-.616,1.532-1.847,1.532H19.878v-3.078H21.53C22.761-23.626,23.377-23.056,23.377-22.08Zm6.592,6.622h2.973v-8.153h3.213v-2.357H26.74v2.357h3.228Zm11.832.21c3.108,0,4.94-1.757,4.94-4.9v-5.826H43.813v5.736c0,1.8-.751,2.523-1.982,2.523-1.246,0-2-.721-2-2.523v-5.736H36.86v5.826C36.86-17,38.692-15.248,41.8-15.248Zm14.37-.21h3.093L54.609-25.969H51.681l-4.64,10.511h3.033L50.9-17.5h4.445Zm-4.4-4.234,1.351-3.363,1.351,3.363ZM60.1-15.458h7.988v-2.357H63.078v-8.153H60.1Zm20.571-2.6a3.777,3.777,0,0,1-1.607.345,2.845,2.845,0,0,1-2.973-3,2.829,2.829,0,0,1,3-3,3.278,3.278,0,0,1,2.553,1.171l1.892-1.712a5.746,5.746,0,0,0-4.595-1.922c-3.409,0-5.856,2.267-5.856,5.466s2.448,5.466,5.8,5.466A7.84,7.84,0,0,0,83.3-16.584v-4.355H80.676Zm12.388,2.6h3.093L91.5-25.969H88.574l-4.64,10.511h3.033l.826-2.042h4.445Zm-4.4-4.234,1.351-3.363,1.351,3.363ZM103.5-15.458h3.183l-2.267-3.3a3.488,3.488,0,0,0,2.057-3.318c0-2.4-1.8-3.889-4.67-3.889H97v10.511h2.973v-2.793h1.622Zm-.03-6.622c0,.961-.616,1.532-1.847,1.532H99.971v-3.078h1.652C102.854-23.626,103.47-23.056,103.47-22.08Zm4.64,6.622h4.97c3.484,0,5.871-2.027,5.871-5.255s-2.387-5.255-5.871-5.255h-4.97Zm2.973-2.372V-23.6h1.877a2.733,2.733,0,0,1,2.988,2.883,2.733,2.733,0,0,1-2.988,2.883Zm12.373.075v-1.922h4.67V-21.9h-4.67v-1.772h5.3v-2.3h-8.244v10.511h8.439v-2.3Zm14.235-8.214v5.6l-4.64-5.6H130.6v10.511h2.913v-5.6l4.64,5.6H140.6V-25.969Z" transform="translate(296.059 26.179)" fill="#2f8234"/>
      </g>
    </g>
    <rect id="Rectangle_2" data-name="Rectangle 2" width="458.231" height="30" fill="none" stroke="#2f8234" stroke-miterlimit="10" stroke-width="2"/>
  </g>
</svg>